<?xml version="1.0" encoding="UTF-8"?>
<!DOCTYPE svg PUBLIC "-//W3C//DTD SVG 1.1//EN" "http://www.w3.org/Graphics/SVG/1.1/DTD/svg11.dtd">
<svg width="178mm" height="150mm" viewBox="0 0 17800 15000" version="1.1" xmlns="http://www.w3.org/2000/svg" stroke-width="28.222" stroke-linejoin="round" xml:space="preserve">
 <path fill="rgb(255,255,255)" stroke="none" d="M 8910,15007 L 1,15007 1,0 17819,0 17819,15007 8910,15007 Z"/>
 <path fill="none" stroke="rgb(179,179,179)" stroke-linejoin="round" d="M 8786,13079 L 2175,13079 2175,2697 15397,2697 15397,13079 8786,13079 Z"/>
 <path fill="none" stroke="rgb(179,179,179)" stroke-linejoin="round" d="M 15397,13078 L 2175,13078"/>
 <path fill="none" stroke="rgb(179,179,179)" stroke-linejoin="round" d="M 15397,11001 L 2175,11001"/>
 <path fill="none" stroke="rgb(179,179,179)" stroke-linejoin="round" d="M 15397,8924 L 2175,8924"/>
 <path fill="none" stroke="rgb(179,179,179)" stroke-linejoin="round" d="M 15397,6849 L 2175,6849"/>
 <path fill="none" stroke="rgb(179,179,179)" stroke-linejoin="round" d="M 15397,4772 L 2175,4772"/>
 <path fill="none" stroke="rgb(179,179,179)" stroke-linejoin="round" d="M 15397,2696 L 2175,2696"/>
 <path fill="none" stroke="rgb(179,179,179)" stroke-linejoin="round" d="M 2175,13228 L 2175,13078"/>
 <path fill="none" stroke="rgb(179,179,179)" stroke-linejoin="round" d="M 2175,13228 L 2175,13078"/>
 <path fill="none" stroke="rgb(179,179,179)" stroke-linejoin="round" d="M 3377,13228 L 3377,13078"/>
 <path fill="none" stroke="rgb(179,179,179)" stroke-linejoin="round" d="M 3377,13228 L 3377,13078"/>
 <path fill="none" stroke="rgb(179,179,179)" stroke-linejoin="round" d="M 4579,13228 L 4579,13078"/>
 <path fill="none" stroke="rgb(179,179,179)" stroke-linejoin="round" d="M 4579,13228 L 4579,13078"/>
 <path fill="none" stroke="rgb(179,179,179)" stroke-linejoin="round" d="M 5781,13228 L 5781,13078"/>
 <path fill="none" stroke="rgb(179,179,179)" stroke-linejoin="round" d="M 5781,13228 L 5781,13078"/>
 <path fill="none" stroke="rgb(179,179,179)" stroke-linejoin="round" d="M 6983,13228 L 6983,13078"/>
 <path fill="none" stroke="rgb(179,179,179)" stroke-linejoin="round" d="M 6983,13228 L 6983,13078"/>
 <path fill="none" stroke="rgb(179,179,179)" stroke-linejoin="round" d="M 8185,13228 L 8185,13078"/>
 <path fill="none" stroke="rgb(179,179,179)" stroke-linejoin="round" d="M 8185,13228 L 8185,13078"/>
 <path fill="none" stroke="rgb(179,179,179)" stroke-linejoin="round" d="M 9386,13228 L 9386,13078"/>
 <path fill="none" stroke="rgb(179,179,179)" stroke-linejoin="round" d="M 9386,13228 L 9386,13078"/>
 <path fill="none" stroke="rgb(179,179,179)" stroke-linejoin="round" d="M 10588,13228 L 10588,13078"/>
 <path fill="none" stroke="rgb(179,179,179)" stroke-linejoin="round" d="M 10588,13228 L 10588,13078"/>
 <path fill="none" stroke="rgb(179,179,179)" stroke-linejoin="round" d="M 11790,13228 L 11790,13078"/>
 <path fill="none" stroke="rgb(179,179,179)" stroke-linejoin="round" d="M 11790,13228 L 11790,13078"/>
 <path fill="none" stroke="rgb(179,179,179)" stroke-linejoin="round" d="M 12992,13228 L 12992,13078"/>
 <path fill="none" stroke="rgb(179,179,179)" stroke-linejoin="round" d="M 12992,13228 L 12992,13078"/>
 <path fill="none" stroke="rgb(179,179,179)" stroke-linejoin="round" d="M 14194,13228 L 14194,13078"/>
 <path fill="none" stroke="rgb(179,179,179)" stroke-linejoin="round" d="M 14194,13228 L 14194,13078"/>
 <path fill="none" stroke="rgb(179,179,179)" stroke-linejoin="round" d="M 15397,13228 L 15397,13078"/>
 <path fill="none" stroke="rgb(179,179,179)" stroke-linejoin="round" d="M 15397,13228 L 15397,13078"/>
 <path fill="none" stroke="rgb(179,179,179)" stroke-linejoin="round" d="M 2175,13078 L 15397,13078"/>
 <path fill="none" stroke="rgb(179,179,179)" stroke-linejoin="round" d="M 2025,13078 L 2175,13078"/>
 <path fill="none" stroke="rgb(179,179,179)" stroke-linejoin="round" d="M 2025,13078 L 2175,13078"/>
 <path fill="none" stroke="rgb(179,179,179)" stroke-linejoin="round" d="M 2025,11001 L 2175,11001"/>
 <path fill="none" stroke="rgb(179,179,179)" stroke-linejoin="round" d="M 2025,11001 L 2175,11001"/>
 <path fill="none" stroke="rgb(179,179,179)" stroke-linejoin="round" d="M 2025,8924 L 2175,8924"/>
 <path fill="none" stroke="rgb(179,179,179)" stroke-linejoin="round" d="M 2025,8924 L 2175,8924"/>
 <path fill="none" stroke="rgb(179,179,179)" stroke-linejoin="round" d="M 2025,6849 L 2175,6849"/>
 <path fill="none" stroke="rgb(179,179,179)" stroke-linejoin="round" d="M 2025,6849 L 2175,6849"/>
 <path fill="none" stroke="rgb(179,179,179)" stroke-linejoin="round" d="M 2025,4772 L 2175,4772"/>
 <path fill="none" stroke="rgb(179,179,179)" stroke-linejoin="round" d="M 2025,4772 L 2175,4772"/>
 <path fill="none" stroke="rgb(179,179,179)" stroke-linejoin="round" d="M 2025,2696 L 2175,2696"/>
 <path fill="none" stroke="rgb(179,179,179)" stroke-linejoin="round" d="M 2025,2696 L 2175,2696"/>
 <path fill="none" stroke="rgb(179,179,179)" stroke-linejoin="round" d="M 2175,13078 L 2175,2696"/>
 <path fill="rgb(0,69,134)" stroke="none" d="M 2050,6751 L 2175,6876 2300,6751 2175,6626 2050,6751 Z"/>
 <path fill="none" stroke="rgb(0,69,134)" stroke-linejoin="round" d="M 2050,6751 L 2175,6876 2300,6751 2175,6626 2050,6751 Z"/>
 <path fill="rgb(0,69,134)" stroke="none" d="M 3252,7813 L 3377,7938 3502,7813 3377,7688 3252,7813 Z"/>
 <path fill="none" stroke="rgb(0,69,134)" stroke-linejoin="round" d="M 3252,7813 L 3377,7938 3502,7813 3377,7688 3252,7813 Z"/>
 <path fill="rgb(0,69,134)" stroke="none" d="M 4454,8760 L 4579,8885 4704,8760 4579,8635 4454,8760 Z"/>
 <path fill="none" stroke="rgb(0,69,134)" stroke-linejoin="round" d="M 4454,8760 L 4579,8885 4704,8760 4579,8635 4454,8760 Z"/>
 <path fill="rgb(0,69,134)" stroke="none" d="M 5656,8917 L 5781,9042 5906,8917 5781,8792 5656,8917 Z"/>
 <path fill="none" stroke="rgb(0,69,134)" stroke-linejoin="round" d="M 5656,8917 L 5781,9042 5906,8917 5781,8792 5656,8917 Z"/>
 <path fill="rgb(0,69,134)" stroke="none" d="M 6858,9225 L 6983,9350 7108,9225 6983,9100 6858,9225 Z"/>
 <path fill="none" stroke="rgb(0,69,134)" stroke-linejoin="round" d="M 6858,9225 L 6983,9350 7108,9225 6983,9100 6858,9225 Z"/>
 <path fill="rgb(0,69,134)" stroke="none" d="M 8060,9573 L 8185,9698 8310,9573 8185,9448 8060,9573 Z"/>
 <path fill="none" stroke="rgb(0,69,134)" stroke-linejoin="round" d="M 8060,9573 L 8185,9698 8310,9573 8185,9448 8060,9573 Z"/>
 <path fill="rgb(0,69,134)" stroke="none" d="M 9261,9744 L 9386,9869 9511,9744 9386,9619 9261,9744 Z"/>
 <path fill="none" stroke="rgb(0,69,134)" stroke-linejoin="round" d="M 9261,9744 L 9386,9869 9511,9744 9386,9619 9261,9744 Z"/>
 <path fill="rgb(0,69,134)" stroke="none" d="M 10463,9736 L 10588,9861 10713,9736 10588,9611 10463,9736 Z"/>
 <path fill="none" stroke="rgb(0,69,134)" stroke-linejoin="round" d="M 10463,9736 L 10588,9861 10713,9736 10588,9611 10463,9736 Z"/>
 <path fill="rgb(0,69,134)" stroke="none" d="M 11665,9944 L 11790,10069 11915,9944 11790,9819 11665,9944 Z"/>
 <path fill="none" stroke="rgb(0,69,134)" stroke-linejoin="round" d="M 11665,9944 L 11790,10069 11915,9944 11790,9819 11665,9944 Z"/>
 <path fill="rgb(0,69,134)" stroke="none" d="M 12867,9133 L 12992,9258 13117,9133 12992,9008 12867,9133 Z"/>
 <path fill="none" stroke="rgb(0,69,134)" stroke-linejoin="round" d="M 12867,9133 L 12992,9258 13117,9133 12992,9008 12867,9133 Z"/>
 <path fill="rgb(0,69,134)" stroke="none" d="M 14069,7477 L 14194,7601 14319,7477 14194,7352 14069,7477 Z"/>
 <path fill="none" stroke="rgb(0,69,134)" stroke-linejoin="round" d="M 14069,7477 L 14194,7601 14319,7477 14194,7352 14069,7477 Z"/>
 <path fill="rgb(0,69,134)" stroke="none" d="M 15272,5915 L 15397,6040 15522,5915 15397,5790 15272,5915 Z"/>
 <path fill="none" stroke="rgb(0,69,134)" stroke-linejoin="round" d="M 15272,5915 L 15397,6040 15522,5915 15397,5790 15272,5915 Z"/>
 <path fill="none" stroke="rgb(0,0,0)" stroke-linejoin="round" stroke-dasharray="53,53" d="M 2175,8361 L 2175,6751 2175,3829"/>
 <path fill="none" stroke="rgb(0,0,0)" stroke-linejoin="round" stroke-dasharray="53,53" d="M 2275,8361 L 2075,8361"/>
 <path fill="none" stroke="rgb(0,0,0)" stroke-linejoin="round" stroke-dasharray="53,53" d="M 2075,3829 L 2275,3829"/>
 <path fill="none" stroke="rgb(0,0,0)" stroke-linejoin="round" stroke-dasharray="53,53" d="M 3377,9263 L 3377,7813 3377,6521"/>
 <path fill="none" stroke="rgb(0,0,0)" stroke-linejoin="round" stroke-dasharray="53,53" d="M 3477,9263 L 3277,9263"/>
 <path fill="none" stroke="rgb(0,0,0)" stroke-linejoin="round" stroke-dasharray="53,53" d="M 3277,6521 L 3477,6521"/>
 <path fill="none" stroke="rgb(0,0,0)" stroke-linejoin="round" stroke-dasharray="53,53" d="M 4579,10555 L 4579,8760 4579,7509"/>
 <path fill="none" stroke="rgb(0,0,0)" stroke-linejoin="round" stroke-dasharray="53,53" d="M 4679,10555 L 4479,10555"/>
 <path fill="none" stroke="rgb(0,0,0)" stroke-linejoin="round" stroke-dasharray="53,53" d="M 4479,7509 L 4679,7509"/>
 <path fill="none" stroke="rgb(0,0,0)" stroke-linejoin="round" stroke-dasharray="53,53" d="M 5781,10600 L 5781,8917 5781,7553"/>
 <path fill="none" stroke="rgb(0,0,0)" stroke-linejoin="round" stroke-dasharray="53,53" d="M 5881,10600 L 5681,10600"/>
 <path fill="none" stroke="rgb(0,0,0)" stroke-linejoin="round" stroke-dasharray="53,53" d="M 5681,7553 L 5881,7553"/>
 <path fill="none" stroke="rgb(0,0,0)" stroke-linejoin="round" stroke-dasharray="53,53" d="M 6983,10533 L 6983,9225 6983,7926"/>
 <path fill="none" stroke="rgb(0,0,0)" stroke-linejoin="round" stroke-dasharray="53,53" d="M 7083,10533 L 6883,10533"/>
 <path fill="none" stroke="rgb(0,0,0)" stroke-linejoin="round" stroke-dasharray="53,53" d="M 6883,7926 L 7083,7926"/>
 <path fill="none" stroke="rgb(0,0,0)" stroke-linejoin="round" stroke-dasharray="53,53" d="M 8185,11367 L 8185,9573 8185,8469"/>
 <path fill="none" stroke="rgb(0,0,0)" stroke-linejoin="round" stroke-dasharray="53,53" d="M 8285,11367 L 8085,11367"/>
 <path fill="none" stroke="rgb(0,0,0)" stroke-linejoin="round" stroke-dasharray="53,53" d="M 8085,8469 L 8285,8469"/>
 <path fill="none" stroke="rgb(0,0,0)" stroke-linejoin="round" stroke-dasharray="53,53" d="M 9386,11128 L 9386,9744 9386,8438"/>
 <path fill="none" stroke="rgb(0,0,0)" stroke-linejoin="round" stroke-dasharray="53,53" d="M 9486,11128 L 9286,11128"/>
 <path fill="none" stroke="rgb(0,0,0)" stroke-linejoin="round" stroke-dasharray="53,53" d="M 9286,8438 L 9486,8438"/>
 <path fill="none" stroke="rgb(0,0,0)" stroke-linejoin="round" stroke-dasharray="53,53" d="M 10588,11307 L 10588,9736 10588,8800"/>
 <path fill="none" stroke="rgb(0,0,0)" stroke-linejoin="round" stroke-dasharray="53,53" d="M 10688,11307 L 10488,11307"/>
 <path fill="none" stroke="rgb(0,0,0)" stroke-linejoin="round" stroke-dasharray="53,53" d="M 10488,8800 L 10688,8800"/>
 <path fill="none" stroke="rgb(0,0,0)" stroke-linejoin="round" stroke-dasharray="53,53" d="M 11790,11582 L 11790,9944 11790,8550"/>
 <path fill="none" stroke="rgb(0,0,0)" stroke-linejoin="round" stroke-dasharray="53,53" d="M 11890,11582 L 11690,11582"/>
 <path fill="none" stroke="rgb(0,0,0)" stroke-linejoin="round" stroke-dasharray="53,53" d="M 11690,8550 L 11890,8550"/>
 <path fill="none" stroke="rgb(0,0,0)" stroke-linejoin="round" stroke-dasharray="53,53" d="M 12992,11040 L 12992,9133 12992,7830"/>
 <path fill="none" stroke="rgb(0,0,0)" stroke-linejoin="round" stroke-dasharray="53,53" d="M 13092,11040 L 12892,11040"/>
 <path fill="none" stroke="rgb(0,0,0)" stroke-linejoin="round" stroke-dasharray="53,53" d="M 12892,7830 L 13092,7830"/>
 <path fill="none" stroke="rgb(0,0,0)" stroke-linejoin="round" stroke-dasharray="53,53" d="M 14194,9155 L 14194,7477 14194,5826"/>
 <path fill="none" stroke="rgb(0,0,0)" stroke-linejoin="round" stroke-dasharray="53,53" d="M 14294,9155 L 14094,9155"/>
 <path fill="none" stroke="rgb(0,0,0)" stroke-linejoin="round" stroke-dasharray="53,53" d="M 14094,5826 L 14294,5826"/>
 <path fill="none" stroke="rgb(0,0,0)" stroke-linejoin="round" stroke-dasharray="53,53" d="M 15397,8032 L 15397,5915 15397,4263"/>
 <path fill="none" stroke="rgb(0,0,0)" stroke-linejoin="round" stroke-dasharray="53,53" d="M 15497,8032 L 15297,8032"/>
 <path fill="none" stroke="rgb(0,0,0)" stroke-linejoin="round" stroke-dasharray="53,53" d="M 15297,4263 L 15497,4263"/>
 <path fill="rgb(255,66,14)" stroke="none" d="M 2050,3804 L 2300,3804 2300,3854 2050,3854 2050,3804 Z"/>
 <path fill="none" stroke="rgb(255,66,14)" stroke-linejoin="round" d="M 2050,3804 L 2300,3804 2300,3854 2050,3854 2050,3804 Z"/>
 <path fill="rgb(255,66,14)" stroke="none" d="M 3252,6496 L 3502,6496 3502,6546 3252,6546 3252,6496 Z"/>
 <path fill="none" stroke="rgb(255,66,14)" stroke-linejoin="round" d="M 3252,6496 L 3502,6496 3502,6546 3252,6546 3252,6496 Z"/>
 <path fill="rgb(255,66,14)" stroke="none" d="M 4454,7485 L 4704,7485 4704,7534 4454,7534 4454,7485 Z"/>
 <path fill="none" stroke="rgb(255,66,14)" stroke-linejoin="round" d="M 4454,7485 L 4704,7485 4704,7534 4454,7534 4454,7485 Z"/>
 <path fill="rgb(255,66,14)" stroke="none" d="M 5656,7528 L 5906,7528 5906,7578 5656,7578 5656,7528 Z"/>
 <path fill="none" stroke="rgb(255,66,14)" stroke-linejoin="round" d="M 5656,7528 L 5906,7528 5906,7578 5656,7578 5656,7528 Z"/>
 <path fill="rgb(255,66,14)" stroke="none" d="M 6858,7901 L 7108,7901 7108,7951 6858,7951 6858,7901 Z"/>
 <path fill="none" stroke="rgb(255,66,14)" stroke-linejoin="round" d="M 6858,7901 L 7108,7901 7108,7951 6858,7951 6858,7901 Z"/>
 <path fill="rgb(255,66,14)" stroke="none" d="M 8060,8444 L 8310,8444 8310,8494 8060,8494 8060,8444 Z"/>
 <path fill="none" stroke="rgb(255,66,14)" stroke-linejoin="round" d="M 8060,8444 L 8310,8444 8310,8494 8060,8494 8060,8444 Z"/>
 <path fill="rgb(255,66,14)" stroke="none" d="M 9261,8413 L 9511,8413 9511,8463 9261,8463 9261,8413 Z"/>
 <path fill="none" stroke="rgb(255,66,14)" stroke-linejoin="round" d="M 9261,8413 L 9511,8413 9511,8463 9261,8463 9261,8413 Z"/>
 <path fill="rgb(255,66,14)" stroke="none" d="M 10463,8775 L 10713,8775 10713,8825 10463,8825 10463,8775 Z"/>
 <path fill="none" stroke="rgb(255,66,14)" stroke-linejoin="round" d="M 10463,8775 L 10713,8775 10713,8825 10463,8825 10463,8775 Z"/>
 <path fill="rgb(255,66,14)" stroke="none" d="M 11665,8525 L 11915,8525 11915,8575 11665,8575 11665,8525 Z"/>
 <path fill="none" stroke="rgb(255,66,14)" stroke-linejoin="round" d="M 11665,8525 L 11915,8525 11915,8575 11665,8575 11665,8525 Z"/>
 <path fill="rgb(255,66,14)" stroke="none" d="M 12867,7805 L 13117,7805 13117,7855 12867,7855 12867,7805 Z"/>
 <path fill="none" stroke="rgb(255,66,14)" stroke-linejoin="round" d="M 12867,7805 L 13117,7805 13117,7855 12867,7855 12867,7805 Z"/>
 <path fill="rgb(255,66,14)" stroke="none" d="M 14069,5801 L 14319,5801 14319,5851 14069,5851 14069,5801 Z"/>
 <path fill="none" stroke="rgb(255,66,14)" stroke-linejoin="round" d="M 14069,5801 L 14319,5801 14319,5851 14069,5851 14069,5801 Z"/>
 <path fill="rgb(255,66,14)" stroke="none" d="M 15272,4238 L 15522,4238 15522,4288 15272,4288 15272,4238 Z"/>
 <path fill="none" stroke="rgb(255,66,14)" stroke-linejoin="round" d="M 15272,4238 L 15522,4238 15522,4288 15272,4288 15272,4238 Z"/>
 <path fill="rgb(87,157,28)" stroke="none" d="M 2050,8336 L 2300,8336 2300,8386 2050,8386 2050,8336 Z"/>
 <path fill="none" stroke="rgb(87,157,28)" stroke-linejoin="round" d="M 2050,8336 L 2300,8336 2300,8386 2050,8386 2050,8336 Z"/>
 <path fill="rgb(87,157,28)" stroke="none" d="M 3252,9238 L 3502,9238 3502,9288 3252,9288 3252,9238 Z"/>
 <path fill="none" stroke="rgb(87,157,28)" stroke-linejoin="round" d="M 3252,9238 L 3502,9238 3502,9288 3252,9288 3252,9238 Z"/>
 <path fill="rgb(87,157,28)" stroke="none" d="M 4454,10530 L 4704,10530 4704,10580 4454,10580 4454,10530 Z"/>
 <path fill="none" stroke="rgb(87,157,28)" stroke-linejoin="round" d="M 4454,10530 L 4704,10530 4704,10580 4454,10580 4454,10530 Z"/>
 <path fill="rgb(87,157,28)" stroke="none" d="M 5656,10575 L 5906,10575 5906,10625 5656,10625 5656,10575 Z"/>
 <path fill="none" stroke="rgb(87,157,28)" stroke-linejoin="round" d="M 5656,10575 L 5906,10575 5906,10625 5656,10625 5656,10575 Z"/>
 <path fill="rgb(87,157,28)" stroke="none" d="M 6858,10508 L 7108,10508 7108,10558 6858,10558 6858,10508 Z"/>
 <path fill="none" stroke="rgb(87,157,28)" stroke-linejoin="round" d="M 6858,10508 L 7108,10508 7108,10558 6858,10558 6858,10508 Z"/>
 <path fill="rgb(87,157,28)" stroke="none" d="M 8060,11342 L 8310,11342 8310,11392 8060,11392 8060,11342 Z"/>
 <path fill="none" stroke="rgb(87,157,28)" stroke-linejoin="round" d="M 8060,11342 L 8310,11342 8310,11392 8060,11392 8060,11342 Z"/>
 <path fill="rgb(87,157,28)" stroke="none" d="M 9261,11103 L 9511,11103 9511,11153 9261,11153 9261,11103 Z"/>
 <path fill="none" stroke="rgb(87,157,28)" stroke-linejoin="round" d="M 9261,11103 L 9511,11103 9511,11153 9261,11153 9261,11103 Z"/>
 <path fill="rgb(87,157,28)" stroke="none" d="M 10463,11282 L 10713,11282 10713,11332 10463,11332 10463,11282 Z"/>
 <path fill="none" stroke="rgb(87,157,28)" stroke-linejoin="round" d="M 10463,11282 L 10713,11282 10713,11332 10463,11332 10463,11282 Z"/>
 <path fill="rgb(87,157,28)" stroke="none" d="M 11665,11557 L 11915,11557 11915,11607 11665,11607 11665,11557 Z"/>
 <path fill="none" stroke="rgb(87,157,28)" stroke-linejoin="round" d="M 11665,11557 L 11915,11557 11915,11607 11665,11607 11665,11557 Z"/>
 <path fill="rgb(87,157,28)" stroke="none" d="M 12867,11015 L 13117,11015 13117,11065 12867,11065 12867,11015 Z"/>
 <path fill="none" stroke="rgb(87,157,28)" stroke-linejoin="round" d="M 12867,11015 L 13117,11015 13117,11065 12867,11065 12867,11015 Z"/>
 <path fill="rgb(87,157,28)" stroke="none" d="M 14069,9130 L 14319,9130 14319,9180 14069,9180 14069,9130 Z"/>
 <path fill="none" stroke="rgb(87,157,28)" stroke-linejoin="round" d="M 14069,9130 L 14319,9130 14319,9180 14069,9180 14069,9130 Z"/>
 <path fill="rgb(87,157,28)" stroke="none" d="M 15272,8007 L 15522,8007 15522,8057 15272,8057 15272,8007 Z"/>
 <path fill="none" stroke="rgb(87,157,28)" stroke-linejoin="round" d="M 15272,8007 L 15522,8007 15522,8057 15272,8057 15272,8007 Z"/>
 <text class="TextShape"><tspan class="TextParagraph" font-family="Liberation Sans, sans-serif" font-size="353px" font-weight="400"><tspan class="TextPosition" x="1897" y="13646"><tspan fill="rgb(0,0,0)" stroke="none">100</tspan></tspan></tspan></text>
 <text class="TextShape"><tspan class="TextParagraph" font-family="Liberation Sans, sans-serif" font-size="353px" font-weight="400"><tspan class="TextPosition" x="3099" y="13646"><tspan fill="rgb(0,0,0)" stroke="none">500</tspan></tspan></tspan></text>
 <text class="TextShape"><tspan class="TextParagraph" font-family="Liberation Sans, sans-serif" font-size="353px" font-weight="400"><tspan class="TextPosition" x="4208" y="13646"><tspan fill="rgb(0,0,0)" stroke="none">1000</tspan></tspan></tspan></text>
 <text class="TextShape"><tspan class="TextParagraph" font-family="Liberation Sans, sans-serif" font-size="353px" font-weight="400"><tspan class="TextPosition" x="5410" y="13646"><tspan fill="rgb(0,0,0)" stroke="none">2000</tspan></tspan></tspan></text>
 <text class="TextShape"><tspan class="TextParagraph" font-family="Liberation Sans, sans-serif" font-size="353px" font-weight="400"><tspan class="TextPosition" x="6612" y="13646"><tspan fill="rgb(0,0,0)" stroke="none">5000</tspan></tspan></tspan></text>
 <text class="TextShape"><tspan class="TextParagraph" font-family="Liberation Sans, sans-serif" font-size="353px" font-weight="400"><tspan class="TextPosition" x="7722" y="13646"><tspan fill="rgb(0,0,0)" stroke="none">10000</tspan></tspan></tspan></text>
 <text class="TextShape"><tspan class="TextParagraph" font-family="Liberation Sans, sans-serif" font-size="353px" font-weight="400"><tspan class="TextPosition" x="8924" y="13646"><tspan fill="rgb(0,0,0)" stroke="none">20000</tspan></tspan></tspan></text>
 <text class="TextShape"><tspan class="TextParagraph" font-family="Liberation Sans, sans-serif" font-size="353px" font-weight="400"><tspan class="TextPosition" x="10126" y="13646"><tspan fill="rgb(0,0,0)" stroke="none">50000</tspan></tspan></tspan></text>
 <text class="TextShape"><tspan class="TextParagraph" font-family="Liberation Sans, sans-serif" font-size="353px" font-weight="400"><tspan class="TextPosition" x="11235" y="13646"><tspan fill="rgb(0,0,0)" stroke="none">100000</tspan></tspan></tspan></text>
 <text class="TextShape"><tspan class="TextParagraph" font-family="Liberation Sans, sans-serif" font-size="353px" font-weight="400"><tspan class="TextPosition" x="12437" y="13646"><tspan fill="rgb(0,0,0)" stroke="none">200000</tspan></tspan></tspan></text>
 <text class="TextShape"><tspan class="TextParagraph" font-family="Liberation Sans, sans-serif" font-size="353px" font-weight="400"><tspan class="TextPosition" x="13639" y="13646"><tspan fill="rgb(0,0,0)" stroke="none">500000</tspan></tspan></tspan></text>
 <text class="TextShape"><tspan class="TextParagraph" font-family="Liberation Sans, sans-serif" font-size="353px" font-weight="400"><tspan class="TextPosition" x="14750" y="13646"><tspan fill="rgb(0,0,0)" stroke="none">1000000</tspan></tspan></tspan></text>
 <text class="TextShape"><tspan class="TextParagraph" font-family="Liberation Sans, sans-serif" font-size="353px" font-weight="400"><tspan class="TextPosition" x="1369" y="13199"><tspan fill="rgb(0,0,0)" stroke="none">250</tspan></tspan></tspan></text>
 <text class="TextShape"><tspan class="TextParagraph" font-family="Liberation Sans, sans-serif" font-size="353px" font-weight="400"><tspan class="TextPosition" x="1369" y="11122"><tspan fill="rgb(0,0,0)" stroke="none">300</tspan></tspan></tspan></text>
 <text class="TextShape"><tspan class="TextParagraph" font-family="Liberation Sans, sans-serif" font-size="353px" font-weight="400"><tspan class="TextPosition" x="1369" y="9045"><tspan fill="rgb(0,0,0)" stroke="none">350</tspan></tspan></tspan></text>
 <text class="TextShape"><tspan class="TextParagraph" font-family="Liberation Sans, sans-serif" font-size="353px" font-weight="400"><tspan class="TextPosition" x="1369" y="6969"><tspan fill="rgb(0,0,0)" stroke="none">400</tspan></tspan></tspan></text>
 <text class="TextShape"><tspan class="TextParagraph" font-family="Liberation Sans, sans-serif" font-size="353px" font-weight="400"><tspan class="TextPosition" x="1369" y="4892"><tspan fill="rgb(0,0,0)" stroke="none">450</tspan></tspan></tspan></text>
 <text class="TextShape"><tspan class="TextParagraph" font-family="Liberation Sans, sans-serif" font-size="353px" font-weight="400"><tspan class="TextPosition" x="1369" y="2816"><tspan fill="rgb(0,0,0)" stroke="none">500</tspan></tspan></tspan></text>
 <text class="TextShape"><tspan class="TextParagraph" font-family="Liberation Sans, sans-serif" font-size="459px" font-weight="400"><tspan class="TextPosition" x="6224" y="971"><tspan fill="rgb(0,0,0)" stroke="none">Cilk2 runtime vs chunksize</tspan></tspan></tspan></text>
 <text class="TextShape"><tspan class="TextParagraph" font-family="Liberation Sans, sans-serif" font-size="388px" font-weight="400"><tspan class="TextPosition" x="6992" y="2001"><tspan fill="rgb(0,0,0)" stroke="none">on 100 million integers</tspan></tspan></tspan></text>
 <path fill="rgb(0,69,134)" stroke="none" d="M 16519,7005 L 16624,7111 16730,7005 16624,6900 16519,7005 Z"/>
 <path fill="none" stroke="rgb(0,69,134)" stroke-linejoin="round" d="M 16519,7005 L 16624,7111 16730,7005 16624,6900 16519,7005 Z"/>
 <path fill="rgb(255,66,14)" stroke="none" d="M 16519,7482 L 16730,7482 16730,7523 16519,7523 16519,7482 Z"/>
 <path fill="none" stroke="rgb(255,66,14)" stroke-linejoin="round" d="M 16519,7482 L 16730,7482 16730,7523 16519,7523 16519,7482 Z"/>
 <path fill="rgb(87,157,28)" stroke="none" d="M 16519,7979 L 16730,7979 16730,8021 16519,8021 16519,7979 Z"/>
 <path fill="none" stroke="rgb(87,157,28)" stroke-linejoin="round" d="M 16519,7979 L 16730,7979 16730,8021 16519,8021 16519,7979 Z"/>
 <text class="TextShape"><tspan class="TextParagraph" font-family="Liberation Sans, sans-serif" font-size="353px" font-weight="400"><tspan class="TextPosition" x="16830" y="7125"><tspan fill="rgb(0,0,0)" stroke="none">avg</tspan></tspan></tspan></text>
 <text class="TextShape"><tspan class="TextParagraph" font-family="Liberation Sans, sans-serif" font-size="353px" font-weight="400"><tspan class="TextPosition" x="16830" y="7622"><tspan fill="rgb(0,0,0)" stroke="none">max</tspan></tspan></tspan></text>
 <text class="TextShape"><tspan class="TextParagraph" font-family="Liberation Sans, sans-serif" font-size="353px" font-weight="400"><tspan class="TextPosition" x="16830" y="8120"><tspan fill="rgb(0,0,0)" stroke="none">min</tspan></tspan></tspan></text>
 <text class="TextShape"><tspan class="TextParagraph" font-family="Liberation Sans, sans-serif" font-size="318px" font-weight="400"><tspan class="TextPosition" x="7940" y="14413"><tspan fill="rgb(0,0,0)" stroke="none">chunk size</tspan></tspan></tspan></text>
 <text class="TextShape" transform="translate(838,9077) rotate(-90) translate(-838,-9077)"><tspan class="TextParagraph" font-family="Liberation Sans, sans-serif" font-size="318px" font-weight="400"><tspan class="TextPosition" x="838" y="9077"><tspan fill="rgb(0,0,0)" stroke="none">Runtime (ms)</tspan></tspan></tspan></text>
</svg>