<?xml version="1.0" encoding="UTF-8"?>
<!DOCTYPE svg PUBLIC "-//W3C//DTD SVG 1.1//EN" "http://www.w3.org/Graphics/SVG/1.1/DTD/svg11.dtd">
<svg width="181mm" height="114mm" viewBox="0 0 18100 11400" version="1.1" xmlns="http://www.w3.org/2000/svg" stroke-width="28.222" stroke-linejoin="round" xml:space="preserve">
 <path fill="rgb(255,255,255)" stroke="none" d="M 9057,11396 L 0,11396 0,1 18114,1 18114,11396 9057,11396 Z"/>
 <path fill="none" stroke="rgb(179,179,179)" stroke-linejoin="round" d="M 7656,9541 L 1809,9541 1809,1370 13503,1370 13503,9541 7656,9541 Z"/>
 <path fill="none" stroke="rgb(179,179,179)" stroke-linejoin="round" d="M 13503,9540 L 1809,9540"/>
 <path fill="none" stroke="rgb(179,179,179)" stroke-linejoin="round" d="M 13503,8372 L 1809,8372"/>
 <path fill="none" stroke="rgb(179,179,179)" stroke-linejoin="round" d="M 13503,7204 L 1809,7204"/>
 <path fill="none" stroke="rgb(179,179,179)" stroke-linejoin="round" d="M 13503,6036 L 1809,6036"/>
 <path fill="none" stroke="rgb(179,179,179)" stroke-linejoin="round" d="M 13503,4870 L 1809,4870"/>
 <path fill="none" stroke="rgb(179,179,179)" stroke-linejoin="round" d="M 13503,3702 L 1809,3702"/>
 <path fill="none" stroke="rgb(179,179,179)" stroke-linejoin="round" d="M 13503,2534 L 1809,2534"/>
 <path fill="none" stroke="rgb(179,179,179)" stroke-linejoin="round" d="M 1809,9690 L 1809,9540"/>
 <path fill="none" stroke="rgb(179,179,179)" stroke-linejoin="round" d="M 1809,9690 L 1809,9540"/>
 <path fill="none" stroke="rgb(179,179,179)" stroke-linejoin="round" d="M 3108,9690 L 3108,9540"/>
 <path fill="none" stroke="rgb(179,179,179)" stroke-linejoin="round" d="M 3108,9690 L 3108,9540"/>
 <path fill="none" stroke="rgb(179,179,179)" stroke-linejoin="round" d="M 4407,9690 L 4407,9540"/>
 <path fill="none" stroke="rgb(179,179,179)" stroke-linejoin="round" d="M 4407,9690 L 4407,9540"/>
 <path fill="none" stroke="rgb(179,179,179)" stroke-linejoin="round" d="M 5707,9690 L 5707,9540"/>
 <path fill="none" stroke="rgb(179,179,179)" stroke-linejoin="round" d="M 5707,9690 L 5707,9540"/>
 <path fill="none" stroke="rgb(179,179,179)" stroke-linejoin="round" d="M 7006,9690 L 7006,9540"/>
 <path fill="none" stroke="rgb(179,179,179)" stroke-linejoin="round" d="M 7006,9690 L 7006,9540"/>
 <path fill="none" stroke="rgb(179,179,179)" stroke-linejoin="round" d="M 8306,9690 L 8306,9540"/>
 <path fill="none" stroke="rgb(179,179,179)" stroke-linejoin="round" d="M 8306,9690 L 8306,9540"/>
 <path fill="none" stroke="rgb(179,179,179)" stroke-linejoin="round" d="M 9604,9690 L 9604,9540"/>
 <path fill="none" stroke="rgb(179,179,179)" stroke-linejoin="round" d="M 9604,9690 L 9604,9540"/>
 <path fill="none" stroke="rgb(179,179,179)" stroke-linejoin="round" d="M 10904,9690 L 10904,9540"/>
 <path fill="none" stroke="rgb(179,179,179)" stroke-linejoin="round" d="M 10904,9690 L 10904,9540"/>
 <path fill="none" stroke="rgb(179,179,179)" stroke-linejoin="round" d="M 12203,9690 L 12203,9540"/>
 <path fill="none" stroke="rgb(179,179,179)" stroke-linejoin="round" d="M 12203,9690 L 12203,9540"/>
 <path fill="none" stroke="rgb(179,179,179)" stroke-linejoin="round" d="M 13503,9690 L 13503,9540"/>
 <path fill="none" stroke="rgb(179,179,179)" stroke-linejoin="round" d="M 13503,9690 L 13503,9540"/>
 <path fill="none" stroke="rgb(179,179,179)" stroke-linejoin="round" d="M 1809,9540 L 13503,9540"/>
 <path fill="none" stroke="rgb(179,179,179)" stroke-linejoin="round" d="M 1659,9540 L 1809,9540"/>
 <path fill="none" stroke="rgb(179,179,179)" stroke-linejoin="round" d="M 1659,9540 L 1809,9540"/>
 <path fill="none" stroke="rgb(179,179,179)" stroke-linejoin="round" d="M 1659,8372 L 1809,8372"/>
 <path fill="none" stroke="rgb(179,179,179)" stroke-linejoin="round" d="M 1659,8372 L 1809,8372"/>
 <path fill="none" stroke="rgb(179,179,179)" stroke-linejoin="round" d="M 1659,7204 L 1809,7204"/>
 <path fill="none" stroke="rgb(179,179,179)" stroke-linejoin="round" d="M 1659,7204 L 1809,7204"/>
 <path fill="none" stroke="rgb(179,179,179)" stroke-linejoin="round" d="M 1659,6036 L 1809,6036"/>
 <path fill="none" stroke="rgb(179,179,179)" stroke-linejoin="round" d="M 1659,6036 L 1809,6036"/>
 <path fill="none" stroke="rgb(179,179,179)" stroke-linejoin="round" d="M 1659,4870 L 1809,4870"/>
 <path fill="none" stroke="rgb(179,179,179)" stroke-linejoin="round" d="M 1659,4870 L 1809,4870"/>
 <path fill="none" stroke="rgb(179,179,179)" stroke-linejoin="round" d="M 1659,3702 L 1809,3702"/>
 <path fill="none" stroke="rgb(179,179,179)" stroke-linejoin="round" d="M 1659,3702 L 1809,3702"/>
 <path fill="none" stroke="rgb(179,179,179)" stroke-linejoin="round" d="M 1659,2534 L 1809,2534"/>
 <path fill="none" stroke="rgb(179,179,179)" stroke-linejoin="round" d="M 1659,2534 L 1809,2534"/>
 <path fill="none" stroke="rgb(179,179,179)" stroke-linejoin="round" d="M 1809,9540 L 1809,1369"/>
 <path fill="rgb(0,69,134)" stroke="none" d="M 1684,9415 L 1684,9665 1934,9665 1934,9415 1684,9415 Z"/>
 <path fill="none" stroke="rgb(0,69,134)" stroke-linejoin="round" d="M 1684,9415 L 1684,9665 1934,9665 1934,9415 1684,9415 Z"/>
 <path fill="rgb(0,69,134)" stroke="none" d="M 2983,8513 L 2983,8763 3233,8763 3233,8513 2983,8513 Z"/>
 <path fill="none" stroke="rgb(0,69,134)" stroke-linejoin="round" d="M 2983,8513 L 2983,8763 3233,8763 3233,8513 2983,8513 Z"/>
 <path fill="rgb(0,69,134)" stroke="none" d="M 4282,7514 L 4282,7764 4532,7764 4532,7514 4282,7514 Z"/>
 <path fill="none" stroke="rgb(0,69,134)" stroke-linejoin="round" d="M 4282,7514 L 4282,7764 4532,7764 4532,7514 4282,7514 Z"/>
 <path fill="rgb(0,69,134)" stroke="none" d="M 5582,6613 L 5582,6863 5832,6863 5832,6613 5582,6613 Z"/>
 <path fill="none" stroke="rgb(0,69,134)" stroke-linejoin="round" d="M 5582,6613 L 5582,6863 5832,6863 5832,6613 5582,6613 Z"/>
 <path fill="rgb(0,69,134)" stroke="none" d="M 6881,5650 L 6881,5899 7131,5899 7131,5650 6881,5650 Z"/>
 <path fill="none" stroke="rgb(0,69,134)" stroke-linejoin="round" d="M 6881,5650 L 6881,5899 7131,5899 7131,5650 6881,5650 Z"/>
 <path fill="rgb(0,69,134)" stroke="none" d="M 8181,5444 L 8181,5694 8431,5694 8431,5444 8181,5444 Z"/>
 <path fill="none" stroke="rgb(0,69,134)" stroke-linejoin="round" d="M 8181,5444 L 8181,5694 8431,5694 8431,5444 8181,5444 Z"/>
 <path fill="rgb(0,69,134)" stroke="none" d="M 9479,4620 L 9479,4870 9729,4870 9729,4620 9479,4620 Z"/>
 <path fill="none" stroke="rgb(0,69,134)" stroke-linejoin="round" d="M 9479,4620 L 9479,4870 9729,4870 9729,4620 9479,4620 Z"/>
 <path fill="rgb(0,69,134)" stroke="none" d="M 10779,4303 L 10779,4553 11029,4553 11029,4303 10779,4303 Z"/>
 <path fill="none" stroke="rgb(0,69,134)" stroke-linejoin="round" d="M 10779,4303 L 10779,4553 11029,4553 11029,4303 10779,4303 Z"/>
 <path fill="rgb(0,69,134)" stroke="none" d="M 12078,4211 L 12078,4461 12328,4461 12328,4211 12078,4211 Z"/>
 <path fill="none" stroke="rgb(0,69,134)" stroke-linejoin="round" d="M 12078,4211 L 12078,4461 12328,4461 12328,4211 12078,4211 Z"/>
 <path fill="rgb(0,69,134)" stroke="none" d="M 13378,4392 L 13378,4642 13628,4642 13628,4392 13378,4392 Z"/>
 <path fill="none" stroke="rgb(0,69,134)" stroke-linejoin="round" d="M 13378,4392 L 13378,4642 13628,4642 13628,4392 13378,4392 Z"/>
 <path fill="rgb(255,66,14)" stroke="none" d="M 1684,9540 L 1809,9665 1934,9540 1809,9415 1684,9540 Z"/>
 <path fill="none" stroke="rgb(255,66,14)" stroke-linejoin="round" d="M 1684,9540 L 1809,9665 1934,9540 1809,9415 1684,9540 Z"/>
 <path fill="rgb(255,66,14)" stroke="none" d="M 2983,8635 L 3108,8760 3233,8635 3108,8510 2983,8635 Z"/>
 <path fill="none" stroke="rgb(255,66,14)" stroke-linejoin="round" d="M 2983,8635 L 3108,8760 3233,8635 3108,8510 2983,8635 Z"/>
 <path fill="rgb(255,66,14)" stroke="none" d="M 4282,7653 L 4407,7778 4532,7653 4407,7528 4282,7653 Z"/>
 <path fill="none" stroke="rgb(255,66,14)" stroke-linejoin="round" d="M 4282,7653 L 4407,7778 4532,7653 4407,7528 4282,7653 Z"/>
 <path fill="rgb(255,66,14)" stroke="none" d="M 5582,6713 L 5707,6838 5832,6713 5707,6588 5582,6713 Z"/>
 <path fill="none" stroke="rgb(255,66,14)" stroke-linejoin="round" d="M 5582,6713 L 5707,6838 5832,6713 5707,6588 5582,6713 Z"/>
 <path fill="rgb(255,66,14)" stroke="none" d="M 6881,5732 L 7006,5857 7131,5732 7006,5608 6881,5732 Z"/>
 <path fill="none" stroke="rgb(255,66,14)" stroke-linejoin="round" d="M 6881,5732 L 7006,5857 7131,5732 7006,5608 6881,5732 Z"/>
 <path fill="rgb(255,66,14)" stroke="none" d="M 8181,4833 L 8306,4958 8431,4833 8306,4708 8181,4833 Z"/>
 <path fill="none" stroke="rgb(255,66,14)" stroke-linejoin="round" d="M 8181,4833 L 8306,4958 8431,4833 8306,4708 8181,4833 Z"/>
 <path fill="rgb(255,66,14)" stroke="none" d="M 9479,4064 L 9604,4189 9729,4064 9604,3939 9479,4064 Z"/>
 <path fill="none" stroke="rgb(255,66,14)" stroke-linejoin="round" d="M 9479,4064 L 9604,4189 9729,4064 9604,3939 9479,4064 Z"/>
 <path fill="rgb(255,66,14)" stroke="none" d="M 10779,3325 L 10904,3450 11029,3325 10904,3200 10779,3325 Z"/>
 <path fill="none" stroke="rgb(255,66,14)" stroke-linejoin="round" d="M 10779,3325 L 10904,3450 11029,3325 10904,3200 10779,3325 Z"/>
 <path fill="rgb(255,66,14)" stroke="none" d="M 12078,2744 L 12203,2869 12328,2744 12203,2619 12078,2744 Z"/>
 <path fill="none" stroke="rgb(255,66,14)" stroke-linejoin="round" d="M 12078,2744 L 12203,2869 12328,2744 12203,2619 12078,2744 Z"/>
 <path fill="rgb(255,66,14)" stroke="none" d="M 13378,2448 L 13503,2573 13628,2448 13503,2323 13378,2448 Z"/>
 <path fill="none" stroke="rgb(255,66,14)" stroke-linejoin="round" d="M 13378,2448 L 13503,2573 13628,2448 13503,2323 13378,2448 Z"/>
 <path fill="rgb(255,211,32)" stroke="none" d="M 1684,9415 L 1809,9665 1934,9415 1684,9415 Z"/>
 <path fill="none" stroke="rgb(255,211,32)" stroke-linejoin="round" d="M 1684,9415 L 1809,9665 1934,9415 1684,9415 Z"/>
 <path fill="rgb(255,211,32)" stroke="none" d="M 2983,8510 L 3108,8760 3233,8510 2983,8510 Z"/>
 <path fill="none" stroke="rgb(255,211,32)" stroke-linejoin="round" d="M 2983,8510 L 3108,8760 3233,8510 2983,8510 Z"/>
 <path fill="rgb(255,211,32)" stroke="none" d="M 4282,7498 L 4407,7748 4532,7498 4282,7498 Z"/>
 <path fill="none" stroke="rgb(255,211,32)" stroke-linejoin="round" d="M 4282,7498 L 4407,7748 4532,7498 4282,7498 Z"/>
 <path fill="rgb(255,211,32)" stroke="none" d="M 5582,6523 L 5707,6773 5832,6523 5582,6523 Z"/>
 <path fill="none" stroke="rgb(255,211,32)" stroke-linejoin="round" d="M 5582,6523 L 5707,6773 5832,6523 5582,6523 Z"/>
 <path fill="rgb(255,211,32)" stroke="none" d="M 6881,5508 L 7006,5757 7131,5508 6881,5508 Z"/>
 <path fill="none" stroke="rgb(255,211,32)" stroke-linejoin="round" d="M 6881,5508 L 7006,5757 7131,5508 6881,5508 Z"/>
 <path fill="rgb(255,211,32)" stroke="none" d="M 8181,4538 L 8306,4788 8431,4538 8181,4538 Z"/>
 <path fill="none" stroke="rgb(255,211,32)" stroke-linejoin="round" d="M 8181,4538 L 8306,4788 8431,4538 8181,4538 Z"/>
 <path fill="rgb(255,211,32)" stroke="none" d="M 9479,3685 L 9604,3935 9729,3685 9479,3685 Z"/>
 <path fill="none" stroke="rgb(255,211,32)" stroke-linejoin="round" d="M 9479,3685 L 9604,3935 9729,3685 9479,3685 Z"/>
 <path fill="rgb(255,211,32)" stroke="none" d="M 10779,2935 L 10904,3185 11029,2935 10779,2935 Z"/>
 <path fill="none" stroke="rgb(255,211,32)" stroke-linejoin="round" d="M 10779,2935 L 10904,3185 11029,2935 10779,2935 Z"/>
 <path fill="rgb(255,211,32)" stroke="none" d="M 12078,2302 L 12203,2552 12328,2302 12078,2302 Z"/>
 <path fill="none" stroke="rgb(255,211,32)" stroke-linejoin="round" d="M 12078,2302 L 12203,2552 12328,2302 12078,2302 Z"/>
 <path fill="rgb(255,211,32)" stroke="none" d="M 13378,1872 L 13503,2122 13628,1872 13378,1872 Z"/>
 <path fill="none" stroke="rgb(255,211,32)" stroke-linejoin="round" d="M 13378,1872 L 13503,2122 13628,1872 13378,1872 Z"/>
 <path fill="none" stroke="rgb(87,157,28)" stroke-width="80" stroke-linejoin="round" stroke-dasharray="158,158" d="M 1809,9540 L 2133,9248 2458,8956 2783,8664 3108,8372 3433,8080 3758,7788 4083,7497 4407,7205 4732,6913 5057,6621 5382,6329 5707,6037 6032,5745 6357,5454 6681,5163 7006,4871 7331,4579 7656,4287 7981,3995 8306,3703 8631,3411 8955,3120 9279,2828 9604,2536 9929,2244 10254,1952 10579,1660 10904,1369"/>
 <text class="TextShape"><tspan class="TextParagraph" font-family="Liberation Sans" font-size="353px" font-weight="400"><tspan class="TextPosition" x="1716" y="10108"><tspan fill="rgb(0,0,0)" stroke="none">1</tspan></tspan></tspan></text>
 <text class="TextShape"><tspan class="TextParagraph" font-family="Liberation Sans" font-size="353px" font-weight="400"><tspan class="TextPosition" x="3015" y="10108"><tspan fill="rgb(0,0,0)" stroke="none">2</tspan></tspan></tspan></text>
 <text class="TextShape"><tspan class="TextParagraph" font-family="Liberation Sans" font-size="353px" font-weight="400"><tspan class="TextPosition" x="4314" y="10108"><tspan fill="rgb(0,0,0)" stroke="none">4</tspan></tspan></tspan></text>
 <text class="TextShape"><tspan class="TextParagraph" font-family="Liberation Sans" font-size="353px" font-weight="400"><tspan class="TextPosition" x="5614" y="10108"><tspan fill="rgb(0,0,0)" stroke="none">8</tspan></tspan></tspan></text>
 <text class="TextShape"><tspan class="TextParagraph" font-family="Liberation Sans" font-size="353px" font-weight="400"><tspan class="TextPosition" x="6821" y="10108"><tspan fill="rgb(0,0,0)" stroke="none">16</tspan></tspan></tspan></text>
 <text class="TextShape"><tspan class="TextParagraph" font-family="Liberation Sans" font-size="353px" font-weight="400"><tspan class="TextPosition" x="8121" y="10108"><tspan fill="rgb(0,0,0)" stroke="none">32</tspan></tspan></tspan></text>
 <text class="TextShape"><tspan class="TextParagraph" font-family="Liberation Sans" font-size="353px" font-weight="400"><tspan class="TextPosition" x="9420" y="10108"><tspan fill="rgb(0,0,0)" stroke="none">64</tspan></tspan></tspan></text>
 <text class="TextShape"><tspan class="TextParagraph" font-family="Liberation Sans" font-size="353px" font-weight="400"><tspan class="TextPosition" x="10627" y="10108"><tspan fill="rgb(0,0,0)" stroke="none">128</tspan></tspan></tspan></text>
 <text class="TextShape"><tspan class="TextParagraph" font-family="Liberation Sans" font-size="353px" font-weight="400"><tspan class="TextPosition" x="11926" y="10108"><tspan fill="rgb(0,0,0)" stroke="none">256</tspan></tspan></tspan></text>
 <text class="TextShape"><tspan class="TextParagraph" font-family="Liberation Sans" font-size="353px" font-weight="400"><tspan class="TextPosition" x="13226" y="10108"><tspan fill="rgb(0,0,0)" stroke="none">512</tspan></tspan></tspan></text>
 <text class="TextShape"><tspan class="TextParagraph" font-family="Liberation Sans" font-size="353px" font-weight="400"><tspan class="TextPosition" x="1374" y="9661"><tspan fill="rgb(0,0,0)" stroke="none">1</tspan></tspan></tspan></text>
 <text class="TextShape"><tspan class="TextParagraph" font-family="Liberation Sans" font-size="353px" font-weight="400"><tspan class="TextPosition" x="1374" y="8493"><tspan fill="rgb(0,0,0)" stroke="none">2</tspan></tspan></tspan></text>
 <text class="TextShape"><tspan class="TextParagraph" font-family="Liberation Sans" font-size="353px" font-weight="400"><tspan class="TextPosition" x="1374" y="7325"><tspan fill="rgb(0,0,0)" stroke="none">4</tspan></tspan></tspan></text>
 <text class="TextShape"><tspan class="TextParagraph" font-family="Liberation Sans" font-size="353px" font-weight="400"><tspan class="TextPosition" x="1374" y="6157"><tspan fill="rgb(0,0,0)" stroke="none">8</tspan></tspan></tspan></text>
 <text class="TextShape"><tspan class="TextParagraph" font-family="Liberation Sans" font-size="353px" font-weight="400"><tspan class="TextPosition" x="1189" y="4990"><tspan fill="rgb(0,0,0)" stroke="none">16</tspan></tspan></tspan></text>
 <text class="TextShape"><tspan class="TextParagraph" font-family="Liberation Sans" font-size="353px" font-weight="400"><tspan class="TextPosition" x="1189" y="3822"><tspan fill="rgb(0,0,0)" stroke="none">32</tspan></tspan></tspan></text>
 <text class="TextShape"><tspan class="TextParagraph" font-family="Liberation Sans" font-size="353px" font-weight="400"><tspan class="TextPosition" x="1189" y="2654"><tspan fill="rgb(0,0,0)" stroke="none">64</tspan></tspan></tspan></text>
 <text class="TextShape"><tspan class="TextParagraph" font-family="Liberation Sans" font-size="459px" font-weight="400"><tspan class="TextPosition" x="6742" y="899"><tspan fill="rgb(0,0,0)" stroke="none">MPI speedup (integers)</tspan></tspan></tspan></text>
 <path fill="rgb(0,69,134)" stroke="none" d="M 15140,4846 L 15140,5057 15351,5057 15351,4846 15140,4846 Z"/>
 <path fill="none" stroke="rgb(0,69,134)" stroke-linejoin="round" d="M 15140,4846 L 15140,5057 15351,5057 15351,4846 15140,4846 Z"/>
 <path fill="rgb(255,66,14)" stroke="none" d="M 15140,5449 L 15246,5555 15351,5449 15246,5344 15140,5449 Z"/>
 <path fill="none" stroke="rgb(255,66,14)" stroke-linejoin="round" d="M 15140,5449 L 15246,5555 15351,5449 15246,5344 15140,5449 Z"/>
 <path fill="rgb(255,211,32)" stroke="none" d="M 15140,5841 L 15246,6052 15351,5841 15140,5841 Z"/>
 <path fill="none" stroke="rgb(255,211,32)" stroke-linejoin="round" d="M 15140,5841 L 15246,6052 15351,5841 15140,5841 Z"/>
 <path fill="none" stroke="rgb(87,157,28)" stroke-width="80" stroke-linejoin="round" stroke-dasharray="158,158" d="M 14446,6444 L 16046,6444"/>
 <text class="TextShape"><tspan class="TextParagraph" font-family="Liberation Sans" font-size="353px" font-weight="400"><tspan class="TextPosition" x="16146" y="5071"><tspan fill="rgb(0,0,0)" stroke="none">10 million</tspan></tspan></tspan></text>
 <text class="TextShape"><tspan class="TextParagraph" font-family="Liberation Sans" font-size="353px" font-weight="400"><tspan class="TextPosition" x="16146" y="5569"><tspan fill="rgb(0,0,0)" stroke="none">100 million</tspan></tspan></tspan></text>
 <text class="TextShape"><tspan class="TextParagraph" font-family="Liberation Sans" font-size="353px" font-weight="400"><tspan class="TextPosition" x="16146" y="6066"><tspan fill="rgb(0,0,0)" stroke="none">500 million</tspan></tspan></tspan></text>
 <text class="TextShape"><tspan class="TextParagraph" font-family="Liberation Sans" font-size="353px" font-weight="400"><tspan class="TextPosition" x="16146" y="6564"><tspan fill="rgb(0,0,0)" stroke="none">Linear</tspan></tspan></tspan></text>
 <text class="TextShape"><tspan class="TextParagraph" font-family="Liberation Sans" font-size="318px" font-weight="400"><tspan class="TextPosition" x="6864" y="10802"><tspan fill="rgb(0,0,0)" stroke="none">Processors</tspan></tspan></tspan></text>
 <text class="TextShape" transform="translate(837,6440) rotate(-90) translate(-837,-6440)"><tspan class="TextParagraph" font-family="Liberation Sans" font-size="318px" font-weight="400"><tspan class="TextPosition" x="837" y="6440"><tspan fill="rgb(0,0,0)" stroke="none">Speedup</tspan></tspan></tspan></text>
</svg>